<?xml version="1.0"?>
<svg xmlns:rdf="http://www.w3.org/1999/02/22-rdf-syntax-ns#" xmlns="http://www.w3.org/2000/svg" xmlns:cc="http://web.resource.org/cc/" xmlns:dc="http://purl.org/dc/elements/1.1/" xmlns:sodipodi="http://inkscape.sourceforge.net/DTD/sodipodi-0.dtd" id="svg1380" sodipodi:version="0.32" height="400pt" width="350pt" version="1.0" sodipodi:docname="skull_03.svg" sodipodi:docbase="C:\foo\wikipedia\transfer">
 <sodipodi:namedview id="base" bordercolor="#666666" borderopacity="1.0" pagecolor="#ffffff"/>
 <path id="path1445" d="m225.48 493.35c7.76-1.15 18.51-3.33 23.9-4.83 12.4-3.46 40.37-20.07 52.38-31.09 8.73-8.01 9.14-8.85 8.12-16.46-0.59-4.41-4.38-16.73-8.41-27.39l-7.34-19.37 10.17-19.74c11.78-22.88 13.93-31.96 9.24-39.11-2.49-3.81-4.84-4.89-10.6-4.89-4.06 0-7.94 0.54-8.61 1.21-0.66 0.67 0.69 4.52 3.02 8.56 4.67 8.12 4.83 7.2-6.24 37.5-3.69 10.11-4.01 13.71-2.82 32.44 1.66 26.25 1.01 27.4-21.89 39.21-23.51 12.11-36.97 15.76-53.14 14.41-23.61-1.98-72.05-21.36-78.67-31.47-3.37-5.14-3.35-5.67 0.78-17.19 3.19-8.88 4.27-16.28 4.27-29.19 0-15.16-0.63-18.37-5.09-25.97-4.55-7.77-4.85-9.43-2.91-15.92 3.57-11.91 2.91-15.53-2.83-15.53-4.53 0-4.89 0.54-3.76 5.68 0.8 3.66 0.1 7.89-1.98 11.91-3.87 7.5-3.03 12.8 4.89 30.86 3.22 7.33 5.85 14.99 5.85 17.03 0 2.03-5.12 11.68-11.38 21.45-6.26 9.76-12.48 20.4-13.82 23.64-3.07 7.39-1.52 9.46 13.3 17.89 6.01 3.42 15.74 10.74 21.61 16.26 13.24 12.46 20.78 16.43 36.87 19.41 16.53 3.06 27.88 3.24 45.09 0.69zm2.65-54.52c0.35-5.69 0.14-8.61-0.45-6.47-0.6 2.13-1.97 4.75-3.06 5.82-1.33 1.31-1.51 0.43-0.55-2.72 1.18-3.9 0.86-4.45-1.97-3.36-1.86 0.71-4.58 0.3-6.05-0.91-2.21-1.84-2.66-0.2-2.66 9.57 0 9.19 0.74 12.21 3.39 13.72 5.69 3.23 10.63-3.58 11.35-15.65zm-37.18-0.65c-0.71-5.34-1.56-9.99-1.88-10.34-0.32-0.36-2.4 0.33-4.63 1.52-5.23 2.8-5.74 17.53-0.78 22.48 3.06 3.06 3.43 3.04 5.92-0.34 1.89-2.57 2.29-6.43 1.37-13.32zm13.37 14.07c2.01-1.47 3.77-6.31 4.49-12.34 1.15-9.73 1.07-9.94-4.4-10.98-5.85-1.12-9.15 1.52-7.5 6.01 0.52 1.43 0.95 6.45 0.95 11.16 0 9.06 1.08 10.09 6.46 6.15zm37.79-12.47c0.5-8.65 0.04-10.18-3.38-11.27-5.55-1.76-7.88 0.25-7.88 6.78 0 7.92 3.98 15.77 7.63 15.08 2.21-0.42 3.21-3.34 3.63-10.59zm-66.01-2.31c2.39-7.15 2.41-8.73 0.16-10.16-1.46-0.92-3.55-1.7-4.65-1.71-2.18-0.04-6.38 15.61-5.17 19.25 1.61 4.81 6.96 0.72 9.66-7.38zm79.62-1.15c0.51-7.98 0.14-9.14-2.59-8.09-1.75 0.67-3.99 1.22-4.97 1.22-2.63 0-2.16 12.42 0.57 15.16 4.07 4.07 6.36 1.35 6.99-8.29zm-93.77-4.93c0-4.63-0.97-8.74-2.16-9.13-2.4-0.8-5.44 14-3.52 17.11 2.63 4.25 5.68-0.04 5.68-7.98zm105.71 5.95c2.32-4.33 2.72-15.68 0.55-15.59-3.42 0.14-8.24 5.53-8.24 9.21 0 9.53 4.16 12.98 7.69 6.38zm-116.45-3.88c3.74-6.98 1.22-21.48-3.73-21.48-0.95 0-1.7 5.68-1.66 12.62 0.08 12.82 1.77 15.62 5.39 8.86zm128.87-5.95c0.87-4.79 0.67-5.94-0.68-3.88-1.54 2.35-1.91 2.05-1.94-1.57-0.01-2.49-0.89-3.95-1.97-3.29-1.07 0.66-1.94 4.5-1.94 8.53 0 12.49 4.3 12.63 6.53 0.21zm-210.21-7.82c5.232-2.8 8.91-10.72 12.678-27.29 3.109-13.66 3.899-14.94 19.098-30.82 14.6-15.24 22.7-27.64 19.9-30.43-0.62-0.63-4.91-1.56-9.53-2.09-10.48-1.18-19.332 2.37-34.046 13.64-15.215 11.66-19.645 13.75-28.124 13.26-20.992-1.21-36.077 20.77-24.424 35.58 3.653 4.64 5.113 5.17 11.571 4.13 8.467-1.35 11.42 1.86 11.42 12.43 0 9.75 3.073 13.59 10.871 13.59 3.768 0 8.532-0.9 10.586-2zm329.45-18.77c6.64-4.96 7.52-8.37 2.51-9.68-3.6-0.94-3.02-1.76 4.78-6.7 19-12.05 22.38-20.36 12.7-31.19-5.23-5.85-6.72-6.38-21.3-7.45-15.63-1.15-15.74-1.19-31.12-13.12l-15.44-11.96-15.03 5.31c-8.27 2.92-15.4 6.41-15.83 7.76-0.44 1.35 7.83 11.39 18.37 22.32 14.41 14.93 20.51 22.87 24.52 31.95 2.94 6.64 7.27 13.47 9.62 15.17 5.51 3.98 19.36 2.71 26.22-2.41zm-205.8-24.36c1.28-1.58 1.35-6.82 0.21-15.04-2.37-17.04-3.29-19.41-7.55-19.41-4.38 0-7.7 10.06-7.72 23.4-0.01 7.85 0.59 9.08 5.33 10.96 7.24 2.86 7.5 2.86 9.73 0.09zm21.34-10.19c0.55-12.88-2.44-20.92-8.19-22.03-6.05-1.16-8.81 5.09-8.81 19.98v13.7h16.5l0.5-11.65zm21.75 8.86c4.13-7.72 1.54-23.73-4.49-27.65-5.95-3.86-14.85 10.19-14.85 23.45v7.96h8.66c6.58 0 9.15-0.91 10.68-3.76zm30.63-3.44c3.58-7.69 3.22-29.5-0.51-30.93-6.4-2.45-8.5 2.75-7.83 19.35 0.75 18.43 0.42 16.84 3.49 16.82 1.34-0.01 3.52-2.36 4.85-5.24zm-91.91-12.53c1.42-17.02-0.32-22.3-5.61-17.01-3.99 3.99-6.16 26.03-2.95 29.9 5.2 6.26 7.22 3.22 8.56-12.89zm104.71 0.67c1.67-12.42 0.63-21.7-2.44-21.7-2.76 0-4.3 5.92-5.47 21.06-1.03 13.29-0.85 14.22 2.58 13.56 2.94-0.56 4.03-3.2 5.33-12.92zm-117.11-1.31c0-11.26-2.59-20.39-5.78-20.39-2.8 0-2.56 27.76 0.26 30.59 3.82 3.81 5.52 0.68 5.52-10.2zm124.18-4.49c-0.02-7.14-0.88-14.3-1.91-15.9-1.3-2-1.89 2.43-1.91 14.19-0.02 10.91 0.67 16.66 1.91 15.89 1.06-0.66 1.92-7.04 1.91-14.18zm-133.92-6.13c0.03-13.58-0.17-14.28-3.24-11.21-4.34 4.34-6.16 26.38-2.37 28.73 4.17 2.57 5.58-1.84 5.61-17.52zm95.44-12.85c13.17-1.7 28.75-4.82 34.63-6.95 5.87-2.13 17.22-4.69 25.23-5.69 8-1 18.48-3.77 23.29-6.15l8.73-4.33 1.18-24.26c0.66-13.34 1.31-24.48 1.46-24.75 1.37-2.46 4.41 1.05 7.17 8.25 1.83 4.81 4.13 8.74 5.11 8.74 2.36 0 23.36-43.49 27.76-57.48 4.27-13.56 3.09-37.11-2.93-58.72-6.51-23.36-4.69-20.87-52.89-72.204-22.19-23.639-67.19-36.821-116.89-34.243-32.03 1.661-50.92 9.75-84.83 36.319-27.425 21.488-50.412 45.708-57.954 61.068-6.592 13.43-6.635 13.69-6.649 40.76l-0.014 27.24 12.615 25.62c6.938 14.09 13.114 25.66 13.723 25.71 0.609 0.06 2.138-6.53 3.398-14.63 3.082-19.82 5.134-23.28 7.903-13.3 3.128 11.26 2.738 14.66-3.675 32.23-7.212 19.76-7.528 29.21-1.187 35.55 5.183 5.18 9.97 6.21 35.15 7.58 11.85 0.64 24.96 3.11 40.76 7.69 12.81 3.7 25.03 7.15 27.17 7.66 8.15 1.93 28.68 1.25 51.74-1.71zm-13.72-13.64c-4.45-5.65-6.91-13.29-10.08-31.31-1.2-6.79-3.14-12.13-4.42-12.13-5.42 0-10.9 6.7-15.65 19.11-6.01 15.74-12.94 23.55-17.52 19.75-5.09-4.23-3.38-10.67 10.39-39.27 7.34-15.26 15.35-32.54 17.8-38.41 2.46-5.87 4.75-11.04 5.1-11.49 1.7-2.18 10.48 9.14 13.97 18 6.99 17.73 16.27 52.48 16.03 59.99-0.31 9.46-5.09 20.84-8.76 20.84-1.58 0-4.67-2.29-6.86-5.08zm48.35-46.73c-10.99-1.84-17.58-5.06-22.99-11.22-7.09-8.08-18.28-36.2-18.54-46.63-0.18-6.9 0.34-7.82 4.65-8.32 2.67-0.3 11.34 1.67 19.26 4.37 18.05 6.16 24.81 6.15 50.87-0.08 34.26-8.19 37.15-5.91 25.25 19.91-4.42 9.61-8.04 19.47-8.04 21.91 0 5.97-11.14 16.17-20.82 19.07-7.53 2.26-19.67 2.67-29.64 0.99zm-150.01-7.29c-25.31-7.03-27.75-8.89-29.49-22.42-0.62-4.8-2.76-15.28-4.765-23.28-2.002-8-3.232-15.2-2.734-16.01 2-3.24 10.899-1.08 26.249 6.37l16.16 7.84 20.37-1.3c14.15-0.91 22.65-2.45 27.81-5.04 16.27-8.19 25.58 0.77 17.21 16.55-6.92 13.05-24.05 34.75-31.23 39.56-8.4 5.63-11.8 5.44-39.58-2.27zm-11.08-185.43c0-3.255-10.99-14.369-23.049-23.305-10.489-7.776-12.838-10.864-21.401-28.142-10.027-20.232-15.965-26.201-26.065-26.201-5.706-0.0001-12.942 8.097-12.942 14.482 0 3.627-0.862 4.127-5.849 3.395-8.82-1.294-17.504 3.149-20.59 10.537-5.3571 12.82-1.7 32.082 6.525 34.366 1.879 0.522 8.472 1.524 14.649 2.227 14.696 1.672 37.376 13.168 53.786 27.262l12.615 10.84 11.161-11.822c6.14-6.499 11.16-12.637 11.16-13.639zm237.55 14.828c4.38-3.577 15.31-11.476 24.3-17.552l16.35-11.047 13.05 1.287c12.74 1.254 13.15 1.153 16.58-4.085 4.43-6.751 5.81-27.168 2.29-33.717-3.74-6.956-8.51-9.38-12.97-6.59-3.31 2.063-3.83 1.612-4.94-4.297-2.59-13.846-18.8-18.977-30.05-9.514-4.26 3.585-7.13 8.842-10.03 18.386-6.37 20.975-17.09 33.332-37.46 43.164l-8.93 4.306 6.76 9.499c8.62 12.128 12.75 16.663 15.16 16.663 1.06 0 5.51-2.93 9.89-6.503z"/>
 <metadata>
  <rdf:RDF>
   <cc:Work>
    <dc:format>image/svg+xml</dc:format>
    <dc:type rdf:resource="http://purl.org/dc/dcmitype/StillImage"/>
    <cc:license rdf:resource="http://creativecommons.org/licenses/publicdomain/"/>
    <dc:publisher>
     <cc:Agent rdf:about="http://openclipart.org/">
      <dc:title>Openclipart</dc:title>
     </cc:Agent>
    </dc:publisher>
   </cc:Work>
   <cc:License rdf:about="http://creativecommons.org/licenses/publicdomain/">
    <cc:permits rdf:resource="http://creativecommons.org/ns#Reproduction"/>
    <cc:permits rdf:resource="http://creativecommons.org/ns#Distribution"/>
    <cc:permits rdf:resource="http://creativecommons.org/ns#DerivativeWorks"/>
   </cc:License>
  </rdf:RDF>
 </metadata>
</svg>
